<?xml version="1.0" encoding="utf-8" standalone="no"?>
<!DOCTYPE svg PUBLIC "-//W3C//DTD SVG 1.1//EN"
  "http://www.w3.org/Graphics/SVG/1.1/DTD/svg11.dtd">
<svg xmlns:xlink="http://www.w3.org/1999/xlink" width="648pt" height="504pt" viewBox="0 0 648 504" xmlns="http://www.w3.org/2000/svg" version="1.1">
 <metadata>
  <rdf:RDF xmlns:dc="http://purl.org/dc/elements/1.1/" xmlns:cc="http://creativecommons.org/ns#" xmlns:rdf="http://www.w3.org/1999/02/22-rdf-syntax-ns#">
   <cc:Work>
    <dc:type rdf:resource="http://purl.org/dc/dcmitype/StillImage"/>
    <dc:date>2022-09-16T15:40:48.237846</dc:date>
    <dc:format>image/svg+xml</dc:format>
    <dc:creator>
     <cc:Agent>
      <dc:title>Matplotlib v3.5.2, https://matplotlib.org/</dc:title>
     </cc:Agent>
    </dc:creator>
   </cc:Work>
  </rdf:RDF>
 </metadata>
 <defs>
  <style type="text/css">*{stroke-linejoin: round; stroke-linecap: butt}</style>
 </defs>
 <g id="figure_1">
  <g id="patch_1">
   <path d="M 0 504 
L 648 504 
L 648 0 
L 0 0 
z
" style="fill: #ffffff"/>
  </g>
  <g id="axes_1">
   <g id="patch_2">
    <path d="M 81 448.56 
L 583.2 448.56 
L 583.2 60.48 
L 81 60.48 
z
" style="fill: #ffffff"/>
   </g>
   <g id="matplotlib.axis_1">
    <g id="xtick_1">
     <g id="line2d_1">
      <defs>
       <path id="mdeed788f3c" d="M 0 0 
L 0 3.5 
" style="stroke: #000000; stroke-width: 0.8"/>
      </defs>
      <g>
       <use xlink:href="#mdeed788f3c" x="103.827273" y="448.56" style="stroke: #000000; stroke-width: 0.8"/>
      </g>
     </g>
     <g id="text_1">
      <!-- 0 -->
      <g transform="translate(98.101023 469.237188)scale(0.18 -0.18)">
       <defs>
        <path id="DejaVuSans-30" d="M 2034 4250 
Q 1547 4250 1301 3770 
Q 1056 3291 1056 2328 
Q 1056 1369 1301 889 
Q 1547 409 2034 409 
Q 2525 409 2770 889 
Q 3016 1369 3016 2328 
Q 3016 3291 2770 3770 
Q 2525 4250 2034 4250 
z
M 2034 4750 
Q 2819 4750 3233 4129 
Q 3647 3509 3647 2328 
Q 3647 1150 3233 529 
Q 2819 -91 2034 -91 
Q 1250 -91 836 529 
Q 422 1150 422 2328 
Q 422 3509 836 4129 
Q 1250 4750 2034 4750 
z
" transform="scale(0.015625)"/>
       </defs>
       <use xlink:href="#DejaVuSans-30"/>
      </g>
     </g>
    </g>
    <g id="xtick_2">
     <g id="line2d_2">
      <g>
       <use xlink:href="#mdeed788f3c" x="162.448928" y="448.56" style="stroke: #000000; stroke-width: 0.8"/>
      </g>
     </g>
     <g id="text_2">
      <!-- 500 -->
      <g transform="translate(145.270178 469.237188)scale(0.18 -0.18)">
       <defs>
        <path id="DejaVuSans-35" d="M 691 4666 
L 3169 4666 
L 3169 4134 
L 1269 4134 
L 1269 2991 
Q 1406 3038 1543 3061 
Q 1681 3084 1819 3084 
Q 2600 3084 3056 2656 
Q 3513 2228 3513 1497 
Q 3513 744 3044 326 
Q 2575 -91 1722 -91 
Q 1428 -91 1123 -41 
Q 819 9 494 109 
L 494 744 
Q 775 591 1075 516 
Q 1375 441 1709 441 
Q 2250 441 2565 725 
Q 2881 1009 2881 1497 
Q 2881 1984 2565 2268 
Q 2250 2553 1709 2553 
Q 1456 2553 1204 2497 
Q 953 2441 691 2322 
L 691 4666 
z
" transform="scale(0.015625)"/>
       </defs>
       <use xlink:href="#DejaVuSans-35"/>
       <use xlink:href="#DejaVuSans-30" x="63.623047"/>
       <use xlink:href="#DejaVuSans-30" x="127.246094"/>
      </g>
     </g>
    </g>
    <g id="xtick_3">
     <g id="line2d_3">
      <g>
       <use xlink:href="#mdeed788f3c" x="221.070584" y="448.56" style="stroke: #000000; stroke-width: 0.8"/>
      </g>
     </g>
     <g id="text_3">
      <!-- 1000 -->
      <g transform="translate(198.165584 469.237188)scale(0.18 -0.18)">
       <defs>
        <path id="DejaVuSans-31" d="M 794 531 
L 1825 531 
L 1825 4091 
L 703 3866 
L 703 4441 
L 1819 4666 
L 2450 4666 
L 2450 531 
L 3481 531 
L 3481 0 
L 794 0 
L 794 531 
z
" transform="scale(0.015625)"/>
       </defs>
       <use xlink:href="#DejaVuSans-31"/>
       <use xlink:href="#DejaVuSans-30" x="63.623047"/>
       <use xlink:href="#DejaVuSans-30" x="127.246094"/>
       <use xlink:href="#DejaVuSans-30" x="190.869141"/>
      </g>
     </g>
    </g>
    <g id="xtick_4">
     <g id="line2d_4">
      <g>
       <use xlink:href="#mdeed788f3c" x="279.69224" y="448.56" style="stroke: #000000; stroke-width: 0.8"/>
      </g>
     </g>
     <g id="text_4">
      <!-- 1500 -->
      <g transform="translate(256.78724 469.237188)scale(0.18 -0.18)">
       <use xlink:href="#DejaVuSans-31"/>
       <use xlink:href="#DejaVuSans-35" x="63.623047"/>
       <use xlink:href="#DejaVuSans-30" x="127.246094"/>
       <use xlink:href="#DejaVuSans-30" x="190.869141"/>
      </g>
     </g>
    </g>
    <g id="xtick_5">
     <g id="line2d_5">
      <g>
       <use xlink:href="#mdeed788f3c" x="338.313896" y="448.56" style="stroke: #000000; stroke-width: 0.8"/>
      </g>
     </g>
     <g id="text_5">
      <!-- 2000 -->
      <g transform="translate(315.408896 469.237188)scale(0.18 -0.18)">
       <defs>
        <path id="DejaVuSans-32" d="M 1228 531 
L 3431 531 
L 3431 0 
L 469 0 
L 469 531 
Q 828 903 1448 1529 
Q 2069 2156 2228 2338 
Q 2531 2678 2651 2914 
Q 2772 3150 2772 3378 
Q 2772 3750 2511 3984 
Q 2250 4219 1831 4219 
Q 1534 4219 1204 4116 
Q 875 4013 500 3803 
L 500 4441 
Q 881 4594 1212 4672 
Q 1544 4750 1819 4750 
Q 2544 4750 2975 4387 
Q 3406 4025 3406 3419 
Q 3406 3131 3298 2873 
Q 3191 2616 2906 2266 
Q 2828 2175 2409 1742 
Q 1991 1309 1228 531 
z
" transform="scale(0.015625)"/>
       </defs>
       <use xlink:href="#DejaVuSans-32"/>
       <use xlink:href="#DejaVuSans-30" x="63.623047"/>
       <use xlink:href="#DejaVuSans-30" x="127.246094"/>
       <use xlink:href="#DejaVuSans-30" x="190.869141"/>
      </g>
     </g>
    </g>
    <g id="xtick_6">
     <g id="line2d_6">
      <g>
       <use xlink:href="#mdeed788f3c" x="396.935551" y="448.56" style="stroke: #000000; stroke-width: 0.8"/>
      </g>
     </g>
     <g id="text_6">
      <!-- 2500 -->
      <g transform="translate(374.030551 469.237188)scale(0.18 -0.18)">
       <use xlink:href="#DejaVuSans-32"/>
       <use xlink:href="#DejaVuSans-35" x="63.623047"/>
       <use xlink:href="#DejaVuSans-30" x="127.246094"/>
       <use xlink:href="#DejaVuSans-30" x="190.869141"/>
      </g>
     </g>
    </g>
    <g id="xtick_7">
     <g id="line2d_7">
      <g>
       <use xlink:href="#mdeed788f3c" x="455.557207" y="448.56" style="stroke: #000000; stroke-width: 0.8"/>
      </g>
     </g>
     <g id="text_7">
      <!-- 3000 -->
      <g transform="translate(432.652207 469.237188)scale(0.18 -0.18)">
       <defs>
        <path id="DejaVuSans-33" d="M 2597 2516 
Q 3050 2419 3304 2112 
Q 3559 1806 3559 1356 
Q 3559 666 3084 287 
Q 2609 -91 1734 -91 
Q 1441 -91 1130 -33 
Q 819 25 488 141 
L 488 750 
Q 750 597 1062 519 
Q 1375 441 1716 441 
Q 2309 441 2620 675 
Q 2931 909 2931 1356 
Q 2931 1769 2642 2001 
Q 2353 2234 1838 2234 
L 1294 2234 
L 1294 2753 
L 1863 2753 
Q 2328 2753 2575 2939 
Q 2822 3125 2822 3475 
Q 2822 3834 2567 4026 
Q 2313 4219 1838 4219 
Q 1578 4219 1281 4162 
Q 984 4106 628 3988 
L 628 4550 
Q 988 4650 1302 4700 
Q 1616 4750 1894 4750 
Q 2613 4750 3031 4423 
Q 3450 4097 3450 3541 
Q 3450 3153 3228 2886 
Q 3006 2619 2597 2516 
z
" transform="scale(0.015625)"/>
       </defs>
       <use xlink:href="#DejaVuSans-33"/>
       <use xlink:href="#DejaVuSans-30" x="63.623047"/>
       <use xlink:href="#DejaVuSans-30" x="127.246094"/>
       <use xlink:href="#DejaVuSans-30" x="190.869141"/>
      </g>
     </g>
    </g>
    <g id="xtick_8">
     <g id="line2d_8">
      <g>
       <use xlink:href="#mdeed788f3c" x="514.178863" y="448.56" style="stroke: #000000; stroke-width: 0.8"/>
      </g>
     </g>
     <g id="text_8">
      <!-- 3500 -->
      <g transform="translate(491.273863 469.237188)scale(0.18 -0.18)">
       <use xlink:href="#DejaVuSans-33"/>
       <use xlink:href="#DejaVuSans-35" x="63.623047"/>
       <use xlink:href="#DejaVuSans-30" x="127.246094"/>
       <use xlink:href="#DejaVuSans-30" x="190.869141"/>
      </g>
     </g>
    </g>
    <g id="xtick_9">
     <g id="line2d_9">
      <g>
       <use xlink:href="#mdeed788f3c" x="572.800518" y="448.56" style="stroke: #000000; stroke-width: 0.8"/>
      </g>
     </g>
     <g id="text_9">
      <!-- 4000 -->
      <g transform="translate(549.895518 469.237188)scale(0.18 -0.18)">
       <defs>
        <path id="DejaVuSans-34" d="M 2419 4116 
L 825 1625 
L 2419 1625 
L 2419 4116 
z
M 2253 4666 
L 3047 4666 
L 3047 1625 
L 3713 1625 
L 3713 1100 
L 3047 1100 
L 3047 0 
L 2419 0 
L 2419 1100 
L 313 1100 
L 313 1709 
L 2253 4666 
z
" transform="scale(0.015625)"/>
       </defs>
       <use xlink:href="#DejaVuSans-34"/>
       <use xlink:href="#DejaVuSans-30" x="63.623047"/>
       <use xlink:href="#DejaVuSans-30" x="127.246094"/>
       <use xlink:href="#DejaVuSans-30" x="190.869141"/>
      </g>
     </g>
    </g>
    <g id="text_10">
     <!-- epochs -->
     <g transform="translate(300.000938 490.657812)scale(0.18 -0.18)">
      <defs>
       <path id="DejaVuSans-65" d="M 3597 1894 
L 3597 1613 
L 953 1613 
Q 991 1019 1311 708 
Q 1631 397 2203 397 
Q 2534 397 2845 478 
Q 3156 559 3463 722 
L 3463 178 
Q 3153 47 2828 -22 
Q 2503 -91 2169 -91 
Q 1331 -91 842 396 
Q 353 884 353 1716 
Q 353 2575 817 3079 
Q 1281 3584 2069 3584 
Q 2775 3584 3186 3129 
Q 3597 2675 3597 1894 
z
M 3022 2063 
Q 3016 2534 2758 2815 
Q 2500 3097 2075 3097 
Q 1594 3097 1305 2825 
Q 1016 2553 972 2059 
L 3022 2063 
z
" transform="scale(0.015625)"/>
       <path id="DejaVuSans-70" d="M 1159 525 
L 1159 -1331 
L 581 -1331 
L 581 3500 
L 1159 3500 
L 1159 2969 
Q 1341 3281 1617 3432 
Q 1894 3584 2278 3584 
Q 2916 3584 3314 3078 
Q 3713 2572 3713 1747 
Q 3713 922 3314 415 
Q 2916 -91 2278 -91 
Q 1894 -91 1617 61 
Q 1341 213 1159 525 
z
M 3116 1747 
Q 3116 2381 2855 2742 
Q 2594 3103 2138 3103 
Q 1681 3103 1420 2742 
Q 1159 2381 1159 1747 
Q 1159 1113 1420 752 
Q 1681 391 2138 391 
Q 2594 391 2855 752 
Q 3116 1113 3116 1747 
z
" transform="scale(0.015625)"/>
       <path id="DejaVuSans-6f" d="M 1959 3097 
Q 1497 3097 1228 2736 
Q 959 2375 959 1747 
Q 959 1119 1226 758 
Q 1494 397 1959 397 
Q 2419 397 2687 759 
Q 2956 1122 2956 1747 
Q 2956 2369 2687 2733 
Q 2419 3097 1959 3097 
z
M 1959 3584 
Q 2709 3584 3137 3096 
Q 3566 2609 3566 1747 
Q 3566 888 3137 398 
Q 2709 -91 1959 -91 
Q 1206 -91 779 398 
Q 353 888 353 1747 
Q 353 2609 779 3096 
Q 1206 3584 1959 3584 
z
" transform="scale(0.015625)"/>
       <path id="DejaVuSans-63" d="M 3122 3366 
L 3122 2828 
Q 2878 2963 2633 3030 
Q 2388 3097 2138 3097 
Q 1578 3097 1268 2742 
Q 959 2388 959 1747 
Q 959 1106 1268 751 
Q 1578 397 2138 397 
Q 2388 397 2633 464 
Q 2878 531 3122 666 
L 3122 134 
Q 2881 22 2623 -34 
Q 2366 -91 2075 -91 
Q 1284 -91 818 406 
Q 353 903 353 1747 
Q 353 2603 823 3093 
Q 1294 3584 2113 3584 
Q 2378 3584 2631 3529 
Q 2884 3475 3122 3366 
z
" transform="scale(0.015625)"/>
       <path id="DejaVuSans-68" d="M 3513 2113 
L 3513 0 
L 2938 0 
L 2938 2094 
Q 2938 2591 2744 2837 
Q 2550 3084 2163 3084 
Q 1697 3084 1428 2787 
Q 1159 2491 1159 1978 
L 1159 0 
L 581 0 
L 581 4863 
L 1159 4863 
L 1159 2956 
Q 1366 3272 1645 3428 
Q 1925 3584 2291 3584 
Q 2894 3584 3203 3211 
Q 3513 2838 3513 2113 
z
" transform="scale(0.015625)"/>
       <path id="DejaVuSans-73" d="M 2834 3397 
L 2834 2853 
Q 2591 2978 2328 3040 
Q 2066 3103 1784 3103 
Q 1356 3103 1142 2972 
Q 928 2841 928 2578 
Q 928 2378 1081 2264 
Q 1234 2150 1697 2047 
L 1894 2003 
Q 2506 1872 2764 1633 
Q 3022 1394 3022 966 
Q 3022 478 2636 193 
Q 2250 -91 1575 -91 
Q 1294 -91 989 -36 
Q 684 19 347 128 
L 347 722 
Q 666 556 975 473 
Q 1284 391 1588 391 
Q 1994 391 2212 530 
Q 2431 669 2431 922 
Q 2431 1156 2273 1281 
Q 2116 1406 1581 1522 
L 1381 1569 
Q 847 1681 609 1914 
Q 372 2147 372 2553 
Q 372 3047 722 3315 
Q 1072 3584 1716 3584 
Q 2034 3584 2315 3537 
Q 2597 3491 2834 3397 
z
" transform="scale(0.015625)"/>
      </defs>
      <use xlink:href="#DejaVuSans-65"/>
      <use xlink:href="#DejaVuSans-70" x="61.523438"/>
      <use xlink:href="#DejaVuSans-6f" x="125"/>
      <use xlink:href="#DejaVuSans-63" x="186.181641"/>
      <use xlink:href="#DejaVuSans-68" x="241.162109"/>
      <use xlink:href="#DejaVuSans-73" x="304.541016"/>
     </g>
    </g>
   </g>
   <g id="matplotlib.axis_2">
    <g id="ytick_1">
     <g id="line2d_10">
      <defs>
       <path id="m19c87fb066" d="M 0 0 
L -3.5 0 
" style="stroke: #000000; stroke-width: 0.8"/>
      </defs>
      <g>
       <use xlink:href="#m19c87fb066" x="81" y="436.656585" style="stroke: #000000; stroke-width: 0.8"/>
      </g>
     </g>
     <g id="text_11">
      <!-- 0 -->
      <g transform="translate(62.5475 443.495179)scale(0.18 -0.18)">
       <use xlink:href="#DejaVuSans-30"/>
      </g>
     </g>
    </g>
    <g id="ytick_2">
     <g id="line2d_11">
      <g>
       <use xlink:href="#m19c87fb066" x="81" y="364.949268" style="stroke: #000000; stroke-width: 0.8"/>
      </g>
     </g>
     <g id="text_12">
      <!-- 100 -->
      <g transform="translate(39.6425 371.787862)scale(0.18 -0.18)">
       <use xlink:href="#DejaVuSans-31"/>
       <use xlink:href="#DejaVuSans-30" x="63.623047"/>
       <use xlink:href="#DejaVuSans-30" x="127.246094"/>
      </g>
     </g>
    </g>
    <g id="ytick_3">
     <g id="line2d_12">
      <g>
       <use xlink:href="#m19c87fb066" x="81" y="293.241951" style="stroke: #000000; stroke-width: 0.8"/>
      </g>
     </g>
     <g id="text_13">
      <!-- 200 -->
      <g transform="translate(39.6425 300.080545)scale(0.18 -0.18)">
       <use xlink:href="#DejaVuSans-32"/>
       <use xlink:href="#DejaVuSans-30" x="63.623047"/>
       <use xlink:href="#DejaVuSans-30" x="127.246094"/>
      </g>
     </g>
    </g>
    <g id="ytick_4">
     <g id="line2d_13">
      <g>
       <use xlink:href="#m19c87fb066" x="81" y="221.534634" style="stroke: #000000; stroke-width: 0.8"/>
      </g>
     </g>
     <g id="text_14">
      <!-- 300 -->
      <g transform="translate(39.6425 228.373228)scale(0.18 -0.18)">
       <use xlink:href="#DejaVuSans-33"/>
       <use xlink:href="#DejaVuSans-30" x="63.623047"/>
       <use xlink:href="#DejaVuSans-30" x="127.246094"/>
      </g>
     </g>
    </g>
    <g id="ytick_5">
     <g id="line2d_14">
      <g>
       <use xlink:href="#m19c87fb066" x="81" y="149.827317" style="stroke: #000000; stroke-width: 0.8"/>
      </g>
     </g>
     <g id="text_15">
      <!-- 400 -->
      <g transform="translate(39.6425 156.665911)scale(0.18 -0.18)">
       <use xlink:href="#DejaVuSans-34"/>
       <use xlink:href="#DejaVuSans-30" x="63.623047"/>
       <use xlink:href="#DejaVuSans-30" x="127.246094"/>
      </g>
     </g>
    </g>
    <g id="ytick_6">
     <g id="line2d_15">
      <g>
       <use xlink:href="#m19c87fb066" x="81" y="78.12" style="stroke: #000000; stroke-width: 0.8"/>
      </g>
     </g>
     <g id="text_16">
      <!-- 500 -->
      <g transform="translate(39.6425 84.958594)scale(0.18 -0.18)">
       <use xlink:href="#DejaVuSans-35"/>
       <use xlink:href="#DejaVuSans-30" x="63.623047"/>
       <use xlink:href="#DejaVuSans-30" x="127.246094"/>
      </g>
     </g>
    </g>
    <g id="text_17">
     <!-- scores -->
     <g transform="translate(31.899062 283.3875)rotate(-90)scale(0.18 -0.18)">
      <defs>
       <path id="DejaVuSans-72" d="M 2631 2963 
Q 2534 3019 2420 3045 
Q 2306 3072 2169 3072 
Q 1681 3072 1420 2755 
Q 1159 2438 1159 1844 
L 1159 0 
L 581 0 
L 581 3500 
L 1159 3500 
L 1159 2956 
Q 1341 3275 1631 3429 
Q 1922 3584 2338 3584 
Q 2397 3584 2469 3576 
Q 2541 3569 2628 3553 
L 2631 2963 
z
" transform="scale(0.015625)"/>
      </defs>
      <use xlink:href="#DejaVuSans-73"/>
      <use xlink:href="#DejaVuSans-63" x="52.099609"/>
      <use xlink:href="#DejaVuSans-6f" x="107.080078"/>
      <use xlink:href="#DejaVuSans-72" x="168.261719"/>
      <use xlink:href="#DejaVuSans-65" x="207.125"/>
      <use xlink:href="#DejaVuSans-73" x="268.648438"/>
     </g>
    </g>
   </g>
   <g id="line2d_16">
    <path d="M 103.827273 429.485854 
L 104.061759 425.900488 
L 104.413489 423.749268 
L 104.530733 421.598049 
L 104.647976 421.598049 
L 104.765219 429.485854 
L 104.882463 427.334634 
L 104.999706 428.051707 
L 105.234192 419.446829 
L 105.351436 421.598049 
L 105.468679 420.880976 
L 105.703166 429.485854 
L 105.820409 423.749268 
L 105.937652 427.334634 
L 106.054896 421.598049 
L 106.172139 426.617561 
L 106.289382 392.915122 
L 106.406626 424.466341 
L 106.523869 425.183415 
L 106.641112 429.485854 
L 106.758356 428.051707 
L 106.875599 428.051707 
L 106.992842 388.612683 
L 107.110085 423.032195 
L 107.227329 422.315122 
L 107.344572 424.466341 
L 107.461815 391.480976 
L 107.579059 426.617561 
L 107.696302 417.29561 
L 107.930789 427.334634 
L 108.165275 428.76878 
L 108.282519 428.76878 
L 108.399762 420.880976 
L 108.517005 428.76878 
L 108.634248 422.315122 
L 108.751492 423.032195 
L 108.868735 426.617561 
L 108.985978 423.749268 
L 109.220465 407.973659 
L 109.454952 430.202927 
L 109.572195 398.651707 
L 109.689438 426.617561 
L 109.806682 421.598049 
L 110.041168 428.76878 
L 110.158412 423.749268 
L 110.275655 423.749268 
L 110.392898 428.051707 
L 110.510141 427.334634 
L 110.627385 427.334634 
L 110.744628 424.466341 
L 110.861871 425.183415 
L 111.096358 429.485854 
L 111.213601 425.183415 
L 111.330845 426.617561 
L 111.448088 430.92 
L 111.565331 426.617561 
L 111.682575 430.202927 
L 111.799818 428.051707 
L 111.917061 423.032195 
L 112.034305 405.105366 
L 112.151548 428.76878 
L 112.268791 395.783415 
L 112.386034 425.900488 
L 112.503278 426.617561 
L 112.620521 428.76878 
L 112.855008 420.880976 
L 112.972251 429.485854 
L 113.089494 424.466341 
L 113.206738 425.183415 
L 113.323981 418.729756 
L 113.441224 418.729756 
L 113.675711 428.051707 
L 113.792954 428.051707 
L 113.910198 414.427317 
L 114.144684 429.485854 
L 114.613657 421.598049 
L 114.730901 428.76878 
L 114.848144 426.617561 
L 114.965387 427.334634 
L 115.082631 427.334634 
L 115.199874 425.900488 
L 115.317117 418.729756 
L 115.551604 424.466341 
L 115.668847 422.315122 
L 115.903334 429.485854 
L 116.020577 429.485854 
L 116.13782 425.900488 
L 116.255064 426.617561 
L 116.372307 418.012683 
L 116.48955 429.485854 
L 116.606794 429.485854 
L 116.724037 428.051707 
L 116.84128 428.76878 
L 116.958524 420.880976 
L 117.075767 428.76878 
L 117.310254 425.183415 
L 117.427497 426.617561 
L 117.54474 423.749268 
L 117.661983 417.29561 
L 117.89647 427.334634 
L 118.013713 426.617561 
L 118.2482 418.729756 
L 118.365443 428.76878 
L 118.482687 420.163902 
L 118.59993 427.334634 
L 118.717173 423.032195 
L 118.834417 428.76878 
L 118.95166 428.76878 
L 119.068903 428.051707 
L 119.30339 425.900488 
L 119.420633 429.485854 
L 119.537876 428.051707 
L 119.65512 412.276098 
L 119.772363 426.617561 
L 120.00685 423.032195 
L 120.124093 426.617561 
L 120.241336 418.012683 
L 120.475823 429.485854 
L 120.593066 427.334634 
L 120.71031 402.954146 
L 120.944796 427.334634 
L 121.06204 414.427317 
L 121.179283 428.76878 
L 121.296526 429.485854 
L 121.413769 429.485854 
L 121.648256 425.900488 
L 121.765499 416.578537 
L 121.882743 429.485854 
L 121.999986 415.861463 
L 122.234473 428.051707 
L 122.468959 423.032195 
L 122.586203 428.051707 
L 122.703446 421.598049 
L 122.820689 421.598049 
L 122.937932 418.729756 
L 123.055176 430.92 
L 123.172419 428.051707 
L 123.289662 428.051707 
L 123.406906 426.617561 
L 123.524149 426.617561 
L 123.641392 422.315122 
L 123.758636 426.617561 
L 123.875879 420.880976 
L 123.993122 423.749268 
L 124.110366 416.578537 
L 124.227609 430.202927 
L 124.462096 423.749268 
L 124.579339 430.202927 
L 124.696582 427.334634 
L 124.813825 418.012683 
L 124.931069 418.729756 
L 125.048312 407.973659 
L 125.165555 414.427317 
L 125.282799 428.76878 
L 125.517285 416.578537 
L 125.634529 423.749268 
L 125.751772 418.729756 
L 125.869015 425.183415 
L 125.986259 425.183415 
L 126.103502 425.900488 
L 126.220745 418.012683 
L 126.455232 429.485854 
L 126.689718 420.163902 
L 126.806962 427.334634 
L 126.924205 425.183415 
L 127.041448 415.861463 
L 127.158692 428.76878 
L 127.275935 410.124878 
L 127.627665 428.76878 
L 127.744908 414.427317 
L 127.862152 426.617561 
L 127.979395 425.900488 
L 128.213881 415.861463 
L 128.448368 425.183415 
L 128.565611 423.032195 
L 128.682855 428.051707 
L 128.800098 423.749268 
L 129.151828 429.485854 
L 129.269071 421.598049 
L 129.386315 429.485854 
L 129.503558 428.76878 
L 129.620801 424.466341 
L 129.738045 428.76878 
L 129.855288 426.617561 
L 129.972531 420.880976 
L 130.089774 429.485854 
L 130.207018 423.749268 
L 130.324261 425.183415 
L 130.441504 421.598049 
L 130.558748 429.485854 
L 130.675991 419.446829 
L 130.793234 429.485854 
L 130.910478 429.485854 
L 131.027721 421.598049 
L 131.144964 425.183415 
L 131.262208 423.749268 
L 131.379451 415.861463 
L 131.613938 430.202927 
L 131.848424 416.578537 
L 131.965667 420.880976 
L 132.082911 430.202927 
L 132.200154 430.202927 
L 132.317397 408.690732 
L 132.551884 428.051707 
L 132.669127 428.051707 
L 132.786371 426.617561 
L 132.903614 428.76878 
L 133.020857 428.76878 
L 133.138101 418.729756 
L 133.255344 429.485854 
L 133.372587 417.29561 
L 133.489831 421.598049 
L 133.607074 418.012683 
L 133.724317 409.407805 
L 133.84156 427.334634 
L 134.076047 428.76878 
L 134.19329 421.598049 
L 134.310534 430.202927 
L 134.427777 428.051707 
L 134.662264 420.880976 
L 134.779507 426.617561 
L 135.131237 420.163902 
L 135.24848 423.749268 
L 135.365723 421.598049 
L 135.482967 410.124878 
L 135.60021 410.841951 
L 135.717453 410.124878 
L 135.95194 427.334634 
L 136.069183 427.334634 
L 136.186427 429.485854 
L 136.30367 425.183415 
L 136.538157 402.954146 
L 136.6554 420.163902 
L 136.772643 418.729756 
L 136.889887 420.163902 
L 137.00713 427.334634 
L 137.124373 423.749268 
L 137.241616 426.617561 
L 137.35886 412.993171 
L 137.593346 422.315122 
L 137.71059 430.202927 
L 137.945076 400.802927 
L 138.06232 410.124878 
L 138.179563 403.67122 
L 138.41405 428.051707 
L 138.531293 425.183415 
L 138.648536 408.690732 
L 138.76578 424.466341 
L 138.883023 420.880976 
L 139.000266 412.993171 
L 139.117509 426.617561 
L 139.234753 403.67122 
L 139.351996 425.900488 
L 139.469239 417.29561 
L 139.586483 425.900488 
L 139.703726 402.954146 
L 139.820969 428.051707 
L 140.055456 425.183415 
L 140.172699 411.559024 
L 140.289943 428.051707 
L 140.407186 402.954146 
L 140.758916 420.163902 
L 140.876159 425.900488 
L 140.993402 402.954146 
L 141.110646 428.76878 
L 141.227889 428.76878 
L 141.345132 430.202927 
L 141.462376 425.183415 
L 141.579619 410.124878 
L 141.696862 425.900488 
L 141.814106 415.861463 
L 142.048592 427.334634 
L 142.165836 422.315122 
L 142.283079 407.973659 
L 142.400322 410.124878 
L 142.517565 415.14439 
L 142.634809 408.690732 
L 142.869295 428.051707 
L 142.986539 421.598049 
L 143.103782 427.334634 
L 143.221025 410.124878 
L 143.455512 421.598049 
L 143.572755 410.124878 
L 143.689999 427.334634 
L 143.807242 415.861463 
L 144.158972 430.202927 
L 144.393458 407.256585 
L 144.510702 407.973659 
L 144.745188 426.617561 
L 144.862432 416.578537 
L 144.979675 428.76878 
L 145.096918 417.29561 
L 145.214162 419.446829 
L 145.331405 408.690732 
L 145.448648 412.276098 
L 145.565892 425.900488 
L 145.683135 415.861463 
L 145.800378 425.183415 
L 145.917622 422.315122 
L 146.034865 414.427317 
L 146.152108 428.051707 
L 146.269351 420.163902 
L 146.386595 425.900488 
L 146.621081 407.973659 
L 146.738325 411.559024 
L 146.855568 423.032195 
L 146.972811 400.802927 
L 147.090055 426.617561 
L 147.207298 422.315122 
L 147.324541 402.237073 
L 147.441785 419.446829 
L 147.559028 415.861463 
L 147.793514 428.051707 
L 147.910758 396.500488 
L 148.028001 427.334634 
L 148.262488 397.934634 
L 148.379731 411.559024 
L 148.496974 409.407805 
L 148.614218 422.315122 
L 148.731461 411.559024 
L 148.848704 426.617561 
L 148.965948 423.749268 
L 149.083191 428.76878 
L 149.200434 416.578537 
L 149.317678 419.446829 
L 149.434921 426.617561 
L 149.552164 418.012683 
L 149.669407 426.617561 
L 149.786651 415.861463 
L 149.903894 416.578537 
L 150.021137 421.598049 
L 150.138381 421.598049 
L 150.255624 407.973659 
L 150.490111 425.900488 
L 150.724597 410.841951 
L 151.076327 421.598049 
L 151.310814 395.783415 
L 151.5453 418.729756 
L 151.662544 425.900488 
L 151.89703 387.178537 
L 152.014274 427.334634 
L 152.24876 423.749268 
L 152.366004 426.617561 
L 152.483247 401.52 
L 152.60049 415.861463 
L 152.717734 389.329756 
L 152.834977 397.217561 
L 152.95222 424.466341 
L 153.069464 412.993171 
L 153.186707 414.427317 
L 153.421193 423.749268 
L 153.538437 421.598049 
L 153.65568 395.066341 
L 153.772923 428.051707 
L 153.890167 405.822439 
L 154.00741 362.080976 
L 154.241897 417.29561 
L 154.35914 418.012683 
L 154.593627 400.802927 
L 154.828113 414.427317 
L 155.0626 397.217561 
L 155.297086 422.315122 
L 155.41433 424.466341 
L 155.531573 423.749268 
L 155.76606 404.388293 
L 155.883303 418.729756 
L 156.000546 409.407805 
L 156.11779 412.276098 
L 156.235033 405.822439 
L 156.352276 425.183415 
L 156.46952 420.163902 
L 156.586763 421.598049 
L 156.704006 388.612683 
L 156.938493 424.466341 
L 157.055736 384.310244 
L 157.290223 420.163902 
L 157.407466 409.407805 
L 157.641953 424.466341 
L 157.876439 394.349268 
L 157.993683 410.841951 
L 158.228169 385.74439 
L 158.462656 397.934634 
L 158.579899 393.632195 
L 158.697142 402.237073 
L 158.814386 390.046829 
L 158.931629 421.598049 
L 159.048872 390.763902 
L 159.283359 412.993171 
L 159.400602 410.841951 
L 159.517846 381.441951 
L 159.635089 415.861463 
L 159.752332 412.276098 
L 159.869576 400.085854 
L 159.986819 402.237073 
L 160.104062 399.36878 
L 160.221306 407.973659 
L 160.338549 394.349268 
L 160.573035 418.729756 
L 160.690279 390.763902 
L 160.807522 416.578537 
L 161.042009 406.539512 
L 161.159252 364.232195 
L 161.393739 399.36878 
L 161.510982 395.783415 
L 161.628225 424.466341 
L 161.745469 403.67122 
L 161.862712 402.954146 
L 161.979955 403.67122 
L 162.097198 413.710244 
L 162.214442 411.559024 
L 162.331685 376.422439 
L 162.448928 416.578537 
L 162.566172 400.085854 
L 162.800658 417.29561 
L 162.917902 387.89561 
L 163.152388 409.407805 
L 163.269632 407.973659 
L 163.386875 385.74439 
L 163.504118 413.710244 
L 163.621362 377.139512 
L 163.738605 407.256585 
L 163.855848 408.690732 
L 163.973091 380.007805 
L 164.090335 420.163902 
L 164.207578 410.841951 
L 164.324821 418.729756 
L 164.442065 370.685854 
L 164.559308 416.578537 
L 164.793795 346.305366 
L 165.028281 407.256585 
L 165.262768 361.363902 
L 165.380011 402.954146 
L 165.497255 375.705366 
L 165.614498 400.802927 
L 165.731741 385.74439 
L 165.848984 412.993171 
L 166.083471 354.193171 
L 166.317958 391.480976 
L 166.435201 392.915122 
L 166.552444 385.74439 
L 166.669688 385.74439 
L 166.786931 373.554146 
L 166.904174 393.632195 
L 167.021418 377.856585 
L 167.138661 406.539512 
L 167.255904 404.388293 
L 167.373147 409.407805 
L 167.490391 398.651707 
L 167.724877 410.841951 
L 167.842121 401.52 
L 167.959364 407.973659 
L 168.076607 402.954146 
L 168.193851 390.763902 
L 168.311094 405.105366 
L 168.428337 367.817561 
L 168.545581 411.559024 
L 168.662824 395.783415 
L 168.897311 420.880976 
L 169.014554 372.12 
L 169.131797 399.36878 
L 169.24904 374.27122 
L 169.366284 380.007805 
L 169.60077 410.124878 
L 169.835257 351.324878 
L 170.069744 418.012683 
L 170.186987 397.934634 
L 170.30423 357.778537 
L 170.538717 397.934634 
L 170.65596 408.690732 
L 170.773204 395.066341 
L 170.890447 343.437073 
L 171.00769 391.480976 
L 171.124933 390.763902 
L 171.242177 386.461463 
L 171.35942 405.822439 
L 171.476663 375.705366 
L 171.593907 410.124878 
L 171.71115 385.74439 
L 171.828393 400.802927 
L 171.945637 394.349268 
L 172.06288 358.49561 
L 172.180123 364.949268 
L 172.297367 414.427317 
L 172.531853 374.988293 
L 172.76634 400.802927 
L 172.883583 403.67122 
L 173.000826 383.593171 
L 173.11807 385.74439 
L 173.235313 394.349268 
L 173.352556 357.061463 
L 173.4698 362.080976 
L 173.587043 390.046829 
L 173.704286 380.007805 
L 173.82153 355.627317 
L 173.938773 359.212683 
L 174.056016 392.915122 
L 174.17326 339.134634 
L 174.524989 410.124878 
L 174.759476 358.49561 
L 174.876719 420.163902 
L 174.993963 379.290732 
L 175.111206 402.954146 
L 175.228449 389.329756 
L 175.345693 407.973659 
L 175.697423 394.349268 
L 175.931909 406.539512 
L 176.049153 381.441951 
L 176.166396 407.256585 
L 176.283639 346.305366 
L 176.400882 371.402927 
L 176.518126 371.402927 
L 176.635369 375.705366 
L 176.752612 392.915122 
L 176.869856 390.046829 
L 176.987099 354.910244 
L 177.104342 390.046829 
L 177.221586 391.480976 
L 177.338829 379.290732 
L 177.456072 397.217561 
L 177.573316 334.115122 
L 177.690559 395.066341 
L 177.925046 382.876098 
L 178.042289 405.105366 
L 178.276775 382.876098 
L 178.394019 374.27122 
L 178.511262 384.310244 
L 178.628505 357.778537 
L 178.745749 388.612683 
L 178.862992 387.89561 
L 178.980235 288.939512 
L 179.214722 381.441951 
L 179.331965 369.251707 
L 179.449209 392.915122 
L 179.566452 393.632195 
L 179.800939 382.159024 
L 180.035425 411.559024 
L 180.387155 376.422439 
L 180.504398 384.310244 
L 180.621642 382.876098 
L 180.738885 337.700488 
L 181.090615 388.612683 
L 181.207858 357.778537 
L 181.325102 385.027317 
L 181.442345 340.56878 
L 181.676831 399.36878 
L 181.794075 367.817561 
L 181.911318 395.066341 
L 182.145805 334.115122 
L 182.263048 380.007805 
L 182.380291 370.685854 
L 182.614778 377.856585 
L 182.732021 411.559024 
L 182.849265 390.763902 
L 182.966508 344.154146 
L 183.200995 390.763902 
L 183.318238 381.441951 
L 183.435481 408.690732 
L 183.552724 403.67122 
L 183.669968 370.685854 
L 183.787211 295.393171 
L 184.138941 391.480976 
L 184.256184 286.788293 
L 184.490671 387.89561 
L 184.607914 395.066341 
L 184.725158 305.432195 
L 184.959644 373.554146 
L 185.076888 372.837073 
L 185.194131 383.593171 
L 185.311374 378.573659 
L 185.428617 384.310244 
L 185.780347 339.851707 
L 185.897591 389.329756 
L 186.132077 354.193171 
L 186.249321 376.422439 
L 186.366564 357.061463 
L 186.483807 301.129756 
L 186.601051 392.915122 
L 186.718294 314.754146 
L 186.952781 372.12 
L 187.070024 380.724878 
L 187.421754 343.437073 
L 187.538997 349.890732 
L 187.65624 267.427317 
L 187.773484 341.285854 
L 187.890727 338.417561 
L 188.00797 347.022439 
L 188.125214 377.139512 
L 188.3597 340.56878 
L 188.476944 372.837073 
L 188.594187 312.602927 
L 188.828673 367.817561 
L 188.945917 340.56878 
L 189.06316 277.466341 
L 189.180403 357.061463 
L 189.297647 359.212683 
L 189.532133 271.729756 
L 189.76662 405.105366 
L 190.001107 319.056585 
L 190.11835 342.002927 
L 190.235593 291.090732 
L 190.352837 406.539512 
L 190.587323 315.47122 
L 190.704566 195.002927 
L 190.82181 235.159024 
L 191.056296 395.783415 
L 191.17354 314.754146 
L 191.290783 323.359024 
L 191.408026 321.207805 
L 191.52527 365.666341 
L 191.759756 324.793171 
L 191.877 388.612683 
L 191.994243 177.076098 
L 192.22873 354.193171 
L 192.345973 279.617561 
L 192.463216 301.129756 
L 192.580459 352.041951 
L 192.697703 353.476098 
L 192.814946 321.924878 
L 192.932189 336.266341 
L 193.049433 380.007805 
L 193.166676 268.861463 
L 193.283919 354.910244 
L 193.401163 282.485854 
L 193.518406 342.002927 
L 193.635649 334.115122 
L 193.870136 248.783415 
L 193.987379 172.773659 
L 194.104622 351.324878 
L 194.221866 277.466341 
L 194.339109 94.612683 
L 194.573596 343.437073 
L 194.690839 250.934634 
L 194.808082 360.646829 
L 194.925326 233.007805 
L 195.042569 338.417561 
L 195.277056 258.105366 
L 195.394299 233.007805 
L 195.511542 292.524878 
L 195.628786 263.841951 
L 195.863272 358.49561 
L 195.980515 258.105366 
L 196.097759 306.866341 
L 196.332245 172.056585 
L 196.449489 164.16878 
L 196.566732 253.802927 
L 196.683975 202.173659 
L 196.918462 334.832195 
L 197.035705 309.017561 
L 197.152949 211.49561 
L 197.270192 279.617561 
L 197.387435 207.910244 
L 197.504679 420.163902 
L 197.739165 283.92 
L 197.856408 257.388293 
L 198.090895 341.285854 
L 198.325382 300.412683 
L 198.442625 350.607805 
L 198.559868 282.485854 
L 198.677112 339.851707 
L 198.794355 325.510244 
L 198.911598 341.285854 
L 199.028842 120.427317 
L 199.263328 330.529756 
L 199.380572 337.700488 
L 199.615058 84.573659 
L 199.849545 316.188293 
L 199.966788 298.978537 
L 200.084031 78.12 
L 200.201275 174.924878 
L 200.318518 143.373659 
L 200.435761 143.373659 
L 200.670248 345.588293 
L 200.787491 295.393171 
L 200.904735 146.959024 
L 201.021978 328.378537 
L 201.139221 255.237073 
L 201.256464 315.47122 
L 201.373708 283.202927 
L 201.490951 308.300488 
L 201.608194 227.988293 
L 201.725438 316.905366 
L 201.842681 94.612683 
L 201.959924 227.27122 
L 202.077168 86.007805 
L 202.194411 372.837073 
L 202.546141 170.622439 
L 202.780628 197.154146 
L 202.897871 78.12 
L 203.015114 249.500488 
L 203.132357 172.056585 
L 203.366844 248.783415 
L 203.484087 156.280976 
L 203.601331 355.627317 
L 203.718574 357.778537 
L 203.835817 78.12 
L 204.070304 318.339512 
L 204.187547 78.12 
L 204.422034 113.973659 
L 204.539277 78.12 
L 204.656521 118.276098 
L 204.773764 283.202927 
L 205.00825 80.27122 
L 205.125494 78.12 
L 205.242737 78.12 
L 205.477224 271.729756 
L 205.594467 276.032195 
L 205.71171 78.12 
L 205.828954 78.12 
L 205.946197 222.251707 
L 206.06344 202.173659 
L 206.180684 162.017561 
L 206.297927 293.959024 
L 206.532414 78.12 
L 206.649657 228.705366 
L 206.7669 235.159024 
L 206.884143 78.12 
L 207.11863 281.76878 
L 207.353117 174.924878 
L 207.47036 235.876098 
L 207.587603 237.310244 
L 207.704847 156.998049 
L 207.82209 334.115122 
L 207.939333 320.490732 
L 208.056577 259.539512 
L 208.291063 391.480976 
L 208.408306 125.446829 
L 208.52555 263.841951 
L 208.642793 253.085854 
L 208.760036 269.578537 
L 208.994523 195.002927 
L 209.111766 234.441951 
L 209.346253 141.222439 
L 209.463496 86.007805 
L 209.58074 127.598049 
L 209.697983 79.554146 
L 209.815226 78.12 
L 210.753173 78.12 
L 210.870416 227.27122 
L 210.987659 78.12 
L 211.573876 78.12 
L 211.691119 83.856585 
L 211.808363 222.96878 
L 211.925606 78.12 
L 212.394579 78.12 
L 212.511822 249.500488 
L 212.629066 78.12 
L 213.098039 78.12 
L 213.215282 270.29561 
L 213.449769 78.12 
L 213.567012 144.090732 
L 213.684255 78.12 
L 213.918742 78.12 
L 214.035985 151.978537 
L 214.153229 78.12 
L 214.270472 78.12 
L 214.387715 179.227317 
L 214.504959 78.12 
L 214.622202 174.924878 
L 214.739445 78.12 
L 214.856689 78.12 
L 214.973932 349.173659 
L 215.091175 78.12 
L 215.325662 78.12 
L 215.442905 261.690732 
L 215.560148 78.12 
L 217.201555 78.12 
L 217.318798 113.256585 
L 217.436041 78.12 
L 217.670528 78.12 
L 217.787771 268.861463 
L 217.905015 150.54439 
L 218.022258 149.110244 
L 218.139501 78.12 
L 218.256745 141.222439 
L 218.373988 78.12 
L 218.725718 78.12 
L 218.842961 280.334634 
L 218.960205 78.12 
L 221.539557 78.12 
L 221.656801 232.290732 
L 221.774044 78.12 
L 225.056857 78.12 
L 225.1741 336.266341 
L 225.291343 78.12 
L 225.52583 78.12 
L 225.643073 88.159024 
L 225.760317 78.12 
L 226.346533 78.12 
L 226.463776 344.87122 
L 226.58102 78.12 
L 228.925886 78.12 
L 229.043129 181.378537 
L 229.160373 78.12 
L 229.277616 154.129756 
L 229.394859 78.12 
L 231.622482 78.12 
L 231.739725 306.866341 
L 231.856969 78.12 
L 231.974212 362.798049 
L 232.091455 78.12 
L 232.208699 78.12 
L 232.325942 131.900488 
L 232.443185 78.12 
L 233.029402 78.12 
L 233.146645 138.354146 
L 233.381132 78.12 
L 233.498375 103.934634 
L 233.615618 78.12 
L 233.732862 93.89561 
L 233.850105 131.183415 
L 233.967348 78.12 
L 234.084592 170.622439 
L 234.201835 106.802927 
L 234.436322 175.641951 
L 234.553565 78.12 
L 234.670808 196.437073 
L 234.905295 130.466341 
L 235.022538 177.793171 
L 235.257025 78.12 
L 235.374268 88.876098 
L 235.608755 277.466341 
L 235.725998 78.12 
L 235.843241 98.198049 
L 235.960485 78.12 
L 236.077728 251.651707 
L 236.194971 210.778537 
L 236.546701 300.412683 
L 236.663945 78.12 
L 236.781188 254.52 
L 236.898431 78.12 
L 237.015674 245.198049 
L 237.250161 195.002927 
L 237.367404 78.12 
L 237.719134 78.12 
L 237.836378 83.856585 
L 237.953621 78.12 
L 252.140062 78.12 
L 252.257305 189.266341 
L 252.374548 78.12 
L 258.236714 78.12 
L 258.353957 216.515122 
L 258.4712 78.12 
L 260.347093 78.12 
L 260.464337 353.476098 
L 260.58158 78.12 
L 262.222986 78.12 
L 262.34023 167.754146 
L 262.574716 78.12 
L 262.809203 78.12 
L 263.04369 193.56878 
L 263.278176 78.12 
L 263.39542 103.934634 
L 263.512663 78.12 
L 263.629906 164.16878 
L 263.747149 78.12 
L 266.678232 78.12 
L 266.795476 155.563902 
L 266.912719 78.12 
L 271.016235 78.12 
L 271.133478 255.954146 
L 271.250721 78.12 
L 284.733702 78.12 
L 284.850946 113.973659 
L 284.968189 78.12 
L 297.74771 78.12 
L 297.864953 134.76878 
L 297.982196 78.12 
L 313.223827 78.12 
L 313.34107 79.554146 
L 313.458313 78.12 
L 316.50664 78.12 
L 316.623883 112.539512 
L 316.741126 78.12 
L 317.092856 78.12 
L 317.210099 86.007805 
L 317.327343 78.12 
L 318.265289 78.12 
L 318.382533 118.993171 
L 318.499776 78.12 
L 321.313615 78.12 
L 321.430859 249.500488 
L 321.548102 78.12 
L 323.423995 78.12 
L 323.541238 189.983415 
L 323.658482 78.12 
L 324.127455 78.12 
L 324.244698 143.373659 
L 324.361941 78.12 
L 324.479185 186.398049 
L 324.596428 78.12 
L 326.706808 78.12 
L 326.824051 364.949268 
L 326.941294 78.12 
L 329.286161 78.12 
L 329.403404 168.47122 
L 329.520647 78.12 
L 385.797437 78.12 
L 385.91468 98.915122 
L 386.031923 78.12 
L 394.004468 78.12 
L 394.121712 222.251707 
L 394.238955 78.12 
L 456.02618 78.12 
L 456.143423 385.74439 
L 456.260667 78.12 
L 480.061059 78.12 
L 480.178302 198.588293 
L 480.295546 78.12 
L 555.214022 78.12 
L 555.331265 86.724878 
L 555.448508 78.12 
L 555.565752 118.276098 
L 555.682995 78.12 
L 560.372727 78.12 
L 560.372727 78.12 
" clip-path="url(#pd09b6f3582)" style="fill: none; stroke: #1f77b4; stroke-width: 1.5; stroke-linecap: square"/>
   </g>
   <g id="patch_3">
    <path d="M 81 448.56 
L 81 60.48 
" style="fill: none; stroke: #000000; stroke-width: 0.8; stroke-linejoin: miter; stroke-linecap: square"/>
   </g>
   <g id="patch_4">
    <path d="M 583.2 448.56 
L 583.2 60.48 
" style="fill: none; stroke: #000000; stroke-width: 0.8; stroke-linejoin: miter; stroke-linecap: square"/>
   </g>
   <g id="patch_5">
    <path d="M 81 448.56 
L 583.2 448.56 
" style="fill: none; stroke: #000000; stroke-width: 0.8; stroke-linejoin: miter; stroke-linecap: square"/>
   </g>
   <g id="patch_6">
    <path d="M 81 60.48 
L 583.2 60.48 
" style="fill: none; stroke: #000000; stroke-width: 0.8; stroke-linejoin: miter; stroke-linecap: square"/>
   </g>
  </g>
 </g>
 <defs>
  <clipPath id="pd09b6f3582">
   <rect x="81" y="60.48" width="502.2" height="388.08"/>
  </clipPath>
 </defs>
</svg>
